<mxfile host="app.diagrams.net" modified="2023-11-30T08:55:05.368Z" agent="Mozilla/5.0 (Windows NT 10.0; Win64; x64) AppleWebKit/537.36 (KHTML, like Gecko) Chrome/119.0.0.0 Safari/537.36" etag="BNNvB1LZWvlQ3uPxDUxR" version="22.1.4" type="github">
  <diagram name="Page-1" id="2YBvvXClWsGukQMizWep">
    <mxGraphModel dx="1195" dy="625" grid="0" gridSize="10" guides="1" tooltips="1" connect="1" arrows="1" fold="1" page="1" pageScale="1" pageWidth="850" pageHeight="1100" math="0" shadow="0">
      <root>
        <mxCell id="0" />
        <mxCell id="1" parent="0" />
        <mxCell id="aM9ryv3xv72pqoxQDRHE-1" value="&lt;span style=&quot;font-size: 13px;&quot;&gt;&lt;b&gt;Utilisateur&lt;/b&gt;&lt;/span&gt;" style="shape=umlLifeline;perimeter=lifelinePerimeter;whiteSpace=wrap;html=1;container=0;dropTarget=0;collapsible=0;recursiveResize=0;outlineConnect=0;portConstraint=eastwest;newEdgeStyle={&quot;edgeStyle&quot;:&quot;elbowEdgeStyle&quot;,&quot;elbow&quot;:&quot;vertical&quot;,&quot;curved&quot;:0,&quot;rounded&quot;:0};fillColor=#fff2cc;strokeColor=#d6b656;" parent="1" vertex="1">
          <mxGeometry x="120" y="120" width="100" height="608" as="geometry" />
        </mxCell>
        <mxCell id="aM9ryv3xv72pqoxQDRHE-2" value="" style="html=1;points=[];perimeter=orthogonalPerimeter;outlineConnect=0;targetShapes=umlLifeline;portConstraint=eastwest;newEdgeStyle={&quot;edgeStyle&quot;:&quot;elbowEdgeStyle&quot;,&quot;elbow&quot;:&quot;vertical&quot;,&quot;curved&quot;:0,&quot;rounded&quot;:0};fillColor=#ffe6cc;strokeColor=#d79b00;" parent="aM9ryv3xv72pqoxQDRHE-1" vertex="1">
          <mxGeometry x="45" y="70" width="10" height="491" as="geometry" />
        </mxCell>
        <mxCell id="aM9ryv3xv72pqoxQDRHE-5" value="&lt;b&gt;hereigo&lt;/b&gt;" style="shape=umlLifeline;perimeter=lifelinePerimeter;whiteSpace=wrap;html=1;container=0;dropTarget=0;collapsible=0;recursiveResize=0;outlineConnect=0;portConstraint=eastwest;newEdgeStyle={&quot;edgeStyle&quot;:&quot;elbowEdgeStyle&quot;,&quot;elbow&quot;:&quot;vertical&quot;,&quot;curved&quot;:0,&quot;rounded&quot;:0};fillColor=#e1d5e7;strokeColor=#9673a6;" parent="1" vertex="1">
          <mxGeometry x="435" y="112" width="100" height="606" as="geometry" />
        </mxCell>
        <mxCell id="aM9ryv3xv72pqoxQDRHE-6" value="" style="html=1;points=[];perimeter=orthogonalPerimeter;outlineConnect=0;targetShapes=umlLifeline;portConstraint=eastwest;newEdgeStyle={&quot;edgeStyle&quot;:&quot;elbowEdgeStyle&quot;,&quot;elbow&quot;:&quot;vertical&quot;,&quot;curved&quot;:0,&quot;rounded&quot;:0};fillColor=#f8cecc;strokeColor=#b85450;" parent="aM9ryv3xv72pqoxQDRHE-5" vertex="1">
          <mxGeometry x="45" y="80" width="10" height="485" as="geometry" />
        </mxCell>
        <mxCell id="aM9ryv3xv72pqoxQDRHE-7" value="" style="html=1;verticalAlign=bottom;endArrow=block;edgeStyle=elbowEdgeStyle;elbow=vertical;curved=0;rounded=0;strokeWidth=2;" parent="1" source="aM9ryv3xv72pqoxQDRHE-2" target="aM9ryv3xv72pqoxQDRHE-6" edge="1">
          <mxGeometry relative="1" as="geometry">
            <mxPoint x="275" y="210" as="sourcePoint" />
            <Array as="points">
              <mxPoint x="260" y="200" />
            </Array>
            <mxPoint as="offset" />
          </mxGeometry>
        </mxCell>
        <mxCell id="v8VuTdqaqvN73mxMYC28-37" value="Début éxécution : commande utilisateur" style="edgeLabel;html=1;align=center;verticalAlign=middle;resizable=0;points=[];" vertex="1" connectable="0" parent="aM9ryv3xv72pqoxQDRHE-7">
          <mxGeometry x="-0.1869" y="1" relative="1" as="geometry">
            <mxPoint x="32" y="-9" as="offset" />
          </mxGeometry>
        </mxCell>
        <mxCell id="aM9ryv3xv72pqoxQDRHE-9" value="Analyse des arguments ( Argument Parser )" style="html=1;verticalAlign=bottom;endArrow=block;edgeStyle=elbowEdgeStyle;elbow=vertical;curved=0;rounded=0;strokeWidth=2;" parent="1" source="aM9ryv3xv72pqoxQDRHE-6" target="aM9ryv3xv72pqoxQDRHE-1" edge="1">
          <mxGeometry x="0.0025" relative="1" as="geometry">
            <mxPoint x="255" y="240" as="sourcePoint" />
            <Array as="points">
              <mxPoint x="270" y="240" />
            </Array>
            <mxPoint x="180" y="240" as="targetPoint" />
            <mxPoint as="offset" />
          </mxGeometry>
        </mxCell>
        <mxCell id="v8VuTdqaqvN73mxMYC28-11" value="&lt;b&gt;&lt;font style=&quot;font-size: 15px;&quot;&gt;Diagramme de séquence du bug HereIAM&lt;/font&gt;&lt;/b&gt;" style="text;html=1;align=center;verticalAlign=middle;resizable=0;points=[];autosize=1;strokeColor=none;fillColor=none;" vertex="1" parent="1">
          <mxGeometry x="215" y="40" width="320" height="30" as="geometry" />
        </mxCell>
        <mxCell id="v8VuTdqaqvN73mxMYC28-12" value="Post-Traitement" style="html=1;verticalAlign=bottom;endArrow=block;edgeStyle=elbowEdgeStyle;elbow=vertical;curved=0;rounded=0;strokeWidth=2;" edge="1" parent="1">
          <mxGeometry x="-0.0016" relative="1" as="geometry">
            <mxPoint x="169.5" y="615" as="sourcePoint" />
            <Array as="points">
              <mxPoint x="254.5" y="615" />
            </Array>
            <mxPoint x="484" y="615" as="targetPoint" />
            <mxPoint as="offset" />
          </mxGeometry>
        </mxCell>
        <mxCell id="v8VuTdqaqvN73mxMYC28-13" value="Analyse des arguments ( Argument Parser )" style="html=1;verticalAlign=bottom;endArrow=block;edgeStyle=elbowEdgeStyle;elbow=vertical;curved=0;rounded=0;strokeWidth=2;" edge="1" parent="1">
          <mxGeometry relative="1" as="geometry">
            <mxPoint x="479.5" y="655" as="sourcePoint" />
            <Array as="points">
              <mxPoint x="264.5" y="655" />
            </Array>
            <mxPoint x="174.5" y="655" as="targetPoint" />
          </mxGeometry>
        </mxCell>
        <mxCell id="v8VuTdqaqvN73mxMYC28-23" value="Vérification et Création de Répertoire" style="html=1;verticalAlign=bottom;endArrow=block;edgeStyle=elbowEdgeStyle;elbow=vertical;curved=0;rounded=0;strokeWidth=2;" edge="1" parent="1" target="aM9ryv3xv72pqoxQDRHE-1">
          <mxGeometry relative="1" as="geometry">
            <mxPoint x="475" y="278" as="sourcePoint" />
            <Array as="points" />
            <mxPoint x="185" y="276" as="targetPoint" />
          </mxGeometry>
        </mxCell>
        <mxCell id="v8VuTdqaqvN73mxMYC28-31" value="&lt;b&gt;Tile.py&lt;/b&gt;" style="shape=umlLifeline;perimeter=lifelinePerimeter;whiteSpace=wrap;html=1;container=0;dropTarget=0;collapsible=0;recursiveResize=0;outlineConnect=0;portConstraint=eastwest;newEdgeStyle={&quot;edgeStyle&quot;:&quot;elbowEdgeStyle&quot;,&quot;elbow&quot;:&quot;vertical&quot;,&quot;curved&quot;:0,&quot;rounded&quot;:0};fillColor=#e1d5e7;strokeColor=#9673a6;" vertex="1" parent="1">
          <mxGeometry x="683" y="112" width="100" height="609" as="geometry" />
        </mxCell>
        <mxCell id="v8VuTdqaqvN73mxMYC28-32" value="" style="html=1;points=[];perimeter=orthogonalPerimeter;outlineConnect=0;targetShapes=umlLifeline;portConstraint=eastwest;newEdgeStyle={&quot;edgeStyle&quot;:&quot;elbowEdgeStyle&quot;,&quot;elbow&quot;:&quot;vertical&quot;,&quot;curved&quot;:0,&quot;rounded&quot;:0};fillColor=#f8cecc;strokeColor=#b85450;" vertex="1" parent="v8VuTdqaqvN73mxMYC28-31">
          <mxGeometry x="45" y="80" width="10" height="485" as="geometry" />
        </mxCell>
        <mxCell id="v8VuTdqaqvN73mxMYC28-33" value="&lt;b&gt;Layer.py&lt;/b&gt;" style="shape=umlLifeline;perimeter=lifelinePerimeter;whiteSpace=wrap;html=1;container=0;dropTarget=0;collapsible=0;recursiveResize=0;outlineConnect=0;portConstraint=eastwest;newEdgeStyle={&quot;edgeStyle&quot;:&quot;elbowEdgeStyle&quot;,&quot;elbow&quot;:&quot;vertical&quot;,&quot;curved&quot;:0,&quot;rounded&quot;:0};fillColor=#e1d5e7;strokeColor=#9673a6;" vertex="1" parent="1">
          <mxGeometry x="989" y="103" width="100" height="602" as="geometry" />
        </mxCell>
        <mxCell id="v8VuTdqaqvN73mxMYC28-34" value="" style="html=1;points=[];perimeter=orthogonalPerimeter;outlineConnect=0;targetShapes=umlLifeline;portConstraint=eastwest;newEdgeStyle={&quot;edgeStyle&quot;:&quot;elbowEdgeStyle&quot;,&quot;elbow&quot;:&quot;vertical&quot;,&quot;curved&quot;:0,&quot;rounded&quot;:0};fillColor=#f8cecc;strokeColor=#b85450;" vertex="1" parent="v8VuTdqaqvN73mxMYC28-33">
          <mxGeometry x="45" y="80" width="10" height="485" as="geometry" />
        </mxCell>
        <mxCell id="v8VuTdqaqvN73mxMYC28-35" value="&lt;b&gt;output.py&lt;/b&gt;" style="shape=umlLifeline;perimeter=lifelinePerimeter;whiteSpace=wrap;html=1;container=0;dropTarget=0;collapsible=0;recursiveResize=0;outlineConnect=0;portConstraint=eastwest;newEdgeStyle={&quot;edgeStyle&quot;:&quot;elbowEdgeStyle&quot;,&quot;elbow&quot;:&quot;vertical&quot;,&quot;curved&quot;:0,&quot;rounded&quot;:0};fillColor=#e1d5e7;strokeColor=#9673a6;" vertex="1" parent="1">
          <mxGeometry x="1324" y="116" width="100" height="606" as="geometry" />
        </mxCell>
        <mxCell id="v8VuTdqaqvN73mxMYC28-36" value="" style="html=1;points=[];perimeter=orthogonalPerimeter;outlineConnect=0;targetShapes=umlLifeline;portConstraint=eastwest;newEdgeStyle={&quot;edgeStyle&quot;:&quot;elbowEdgeStyle&quot;,&quot;elbow&quot;:&quot;vertical&quot;,&quot;curved&quot;:0,&quot;rounded&quot;:0};fillColor=#f8cecc;strokeColor=#b85450;" vertex="1" parent="v8VuTdqaqvN73mxMYC28-35">
          <mxGeometry x="45" y="80" width="10" height="485" as="geometry" />
        </mxCell>
        <mxCell id="v8VuTdqaqvN73mxMYC28-40" value="" style="rounded=0;whiteSpace=wrap;html=1;fillColor=#d5e8d4;strokeColor=#82b366;" vertex="1" parent="1">
          <mxGeometry x="475" y="206" width="9" height="76" as="geometry" />
        </mxCell>
        <mxCell id="v8VuTdqaqvN73mxMYC28-41" value="load_attributes()" style="html=1;verticalAlign=bottom;endArrow=block;edgeStyle=elbowEdgeStyle;elbow=vertical;curved=0;rounded=0;strokeWidth=2;" edge="1" parent="1" source="aM9ryv3xv72pqoxQDRHE-1">
          <mxGeometry x="-0.0018" relative="1" as="geometry">
            <mxPoint x="489" y="317" as="sourcePoint" />
            <Array as="points" />
            <mxPoint x="728" y="318" as="targetPoint" />
            <mxPoint as="offset" />
          </mxGeometry>
        </mxCell>
        <mxCell id="v8VuTdqaqvN73mxMYC28-47" style="edgeStyle=orthogonalEdgeStyle;rounded=0;orthogonalLoop=1;jettySize=auto;html=1;exitX=0.924;exitY=0.023;exitDx=0;exitDy=0;exitPerimeter=0;entryX=1.178;entryY=0.971;entryDx=0;entryDy=0;entryPerimeter=0;" edge="1" parent="1" source="v8VuTdqaqvN73mxMYC28-42" target="v8VuTdqaqvN73mxMYC28-42">
          <mxGeometry relative="1" as="geometry">
            <Array as="points">
              <mxPoint x="756" y="235" />
              <mxPoint x="810" y="236" />
              <mxPoint x="810" y="454" />
            </Array>
          </mxGeometry>
        </mxCell>
        <mxCell id="v8VuTdqaqvN73mxMYC28-42" value="" style="rounded=0;whiteSpace=wrap;html=1;fillColor=#d5e8d4;strokeColor=#82b366;" vertex="1" parent="1">
          <mxGeometry x="734" y="230" width="9" height="231" as="geometry" />
        </mxCell>
        <mxCell id="v8VuTdqaqvN73mxMYC28-44" value="Return Topology" style="html=1;verticalAlign=bottom;endArrow=block;edgeStyle=elbowEdgeStyle;elbow=vertical;curved=0;rounded=0;strokeWidth=2;" edge="1" parent="1">
          <mxGeometry x="-0.2385" relative="1" as="geometry">
            <mxPoint x="737" y="575" as="sourcePoint" />
            <Array as="points">
              <mxPoint x="625.5" y="575" />
            </Array>
            <mxPoint x="498" y="575" as="targetPoint" />
            <mxPoint as="offset" />
          </mxGeometry>
        </mxCell>
        <mxCell id="v8VuTdqaqvN73mxMYC28-50" value="load_full_topology" style="text;html=1;align=left;verticalAlign=middle;resizable=0;points=[];autosize=1;strokeColor=none;fillColor=none;" vertex="1" parent="1">
          <mxGeometry x="821" y="245" width="115" height="26" as="geometry" />
        </mxCell>
        <mxCell id="v8VuTdqaqvN73mxMYC28-52" value="register_layer_extractors" style="text;html=1;align=left;verticalAlign=middle;resizable=0;points=[];autosize=1;strokeColor=none;fillColor=none;" vertex="1" parent="1">
          <mxGeometry x="821" y="277" width="150" height="26" as="geometry" />
        </mxCell>
        <mxCell id="v8VuTdqaqvN73mxMYC28-53" value="from_tile_ids" style="text;html=1;align=left;verticalAlign=middle;resizable=0;points=[];autosize=1;strokeColor=none;fillColor=none;" vertex="1" parent="1">
          <mxGeometry x="821" y="313" width="86" height="26" as="geometry" />
        </mxCell>
        <mxCell id="v8VuTdqaqvN73mxMYC28-54" value="load_decoded_layer_data /&amp;nbsp;extract" style="text;html=1;align=left;verticalAlign=middle;resizable=0;points=[];autosize=1;strokeColor=none;fillColor=none;" vertex="1" parent="1">
          <mxGeometry x="821" y="343" width="202" height="26" as="geometry" />
        </mxCell>
        <mxCell id="v8VuTdqaqvN73mxMYC28-55" value="extract" style="text;html=1;align=left;verticalAlign=middle;resizable=0;points=[];autosize=1;strokeColor=none;fillColor=none;" vertex="1" parent="1">
          <mxGeometry x="821" y="376" width="54" height="26" as="geometry" />
        </mxCell>
        <mxCell id="v8VuTdqaqvN73mxMYC28-59" value="" style="endArrow=block;dashed=1;endFill=0;endSize=12;html=1;rounded=0;" edge="1" parent="1" source="v8VuTdqaqvN73mxMYC28-55">
          <mxGeometry width="160" relative="1" as="geometry">
            <mxPoint x="875" y="389" as="sourcePoint" />
            <mxPoint x="1033" y="389" as="targetPoint" />
          </mxGeometry>
        </mxCell>
        <mxCell id="v8VuTdqaqvN73mxMYC28-58" value="" style="rounded=0;whiteSpace=wrap;html=1;fillColor=#d5e8d4;strokeColor=#82b366;" vertex="1" parent="1">
          <mxGeometry x="1040" y="333" width="9" height="151" as="geometry" />
        </mxCell>
        <mxCell id="v8VuTdqaqvN73mxMYC28-62" value="extract_node_anchors" style="text;html=1;align=left;verticalAlign=middle;resizable=0;points=[];autosize=1;strokeColor=none;fillColor=none;" vertex="1" parent="1">
          <mxGeometry x="1088" y="344" width="137" height="26" as="geometry" />
        </mxCell>
        <mxCell id="v8VuTdqaqvN73mxMYC28-63" value="extract_segment_anchors" style="text;html=1;align=left;verticalAlign=middle;resizable=0;points=[];autosize=1;strokeColor=none;fillColor=none;" vertex="1" parent="1">
          <mxGeometry x="1088" y="374" width="156" height="26" as="geometry" />
        </mxCell>
        <mxCell id="v8VuTdqaqvN73mxMYC28-64" value="add_attributes_to_nodes" style="text;html=1;align=left;verticalAlign=middle;resizable=0;points=[];autosize=1;strokeColor=none;fillColor=none;" vertex="1" parent="1">
          <mxGeometry x="1088" y="405" width="150" height="26" as="geometry" />
        </mxCell>
        <mxCell id="v8VuTdqaqvN73mxMYC28-65" value="add_attributes_to_segments" style="text;html=1;align=left;verticalAlign=middle;resizable=0;points=[];autosize=1;strokeColor=none;fillColor=none;" vertex="1" parent="1">
          <mxGeometry x="1088" y="435" width="169" height="26" as="geometry" />
        </mxCell>
        <mxCell id="v8VuTdqaqvN73mxMYC28-67" style="edgeStyle=orthogonalEdgeStyle;rounded=0;orthogonalLoop=1;jettySize=auto;html=1;entryX=0.761;entryY=0.956;entryDx=0;entryDy=0;entryPerimeter=0;" edge="1" parent="1" target="v8VuTdqaqvN73mxMYC28-58">
          <mxGeometry relative="1" as="geometry">
            <mxPoint x="1045" y="340" as="sourcePoint" />
            <Array as="points">
              <mxPoint x="1077" y="340" />
              <mxPoint x="1077" y="477" />
            </Array>
          </mxGeometry>
        </mxCell>
        <mxCell id="v8VuTdqaqvN73mxMYC28-68" value="to_geojson (topology)" style="text;html=1;align=left;verticalAlign=middle;resizable=0;points=[];autosize=1;strokeColor=none;fillColor=none;" vertex="1" parent="1">
          <mxGeometry x="821" y="413" width="133" height="26" as="geometry" />
        </mxCell>
        <mxCell id="v8VuTdqaqvN73mxMYC28-70" value="" style="endArrow=block;dashed=1;endFill=0;endSize=12;html=1;rounded=0;" edge="1" parent="1">
          <mxGeometry width="160" relative="1" as="geometry">
            <mxPoint x="823" y="494" as="sourcePoint" />
            <mxPoint x="1370.12" y="496.004" as="targetPoint" />
          </mxGeometry>
        </mxCell>
        <mxCell id="v8VuTdqaqvN73mxMYC28-71" value="" style="endArrow=none;html=1;rounded=0;" edge="1" parent="1">
          <mxGeometry width="50" height="50" relative="1" as="geometry">
            <mxPoint x="821" y="505" as="sourcePoint" />
            <mxPoint x="821" y="417" as="targetPoint" />
          </mxGeometry>
        </mxCell>
      </root>
    </mxGraphModel>
  </diagram>
</mxfile>
